<svg width="3310" height="5411" viewBox="0 0 3310 5411" fill="none" xmlns="http://www.w3.org/2000/svg">
<path d="M2202.41 5377.83C2183.17 5413.2 2114.26 5415.77 2035.83 5405.87C2000.83 5393.41 1966.01 5380.95 1931 5368.49C1931 5281.26 1931 5194.21 1931 5106.97L2247.5 5039.9C2202.41 5098.36 2166.13 5170.2 2176.02 5246.8C2184.45 5309.48 2219.82 5345.95 2202.41 5377.83Z" fill="#4C3D28"/>
<path d="M1988.4 5387.91L1924.26 5369.59V5107.71L2080.03 5076.37L2244.96 5039.71C2244.96 5039.71 2192.56 5135.35 2162.5 5195.49C2116.68 5287.12 1988.4 5387.91 1988.4 5387.91Z" fill="#33271D"/>
<path d="M1071.35 5377.84C1090.59 5413.21 1159.5 5415.78 1237.93 5405.88C1272.93 5393.42 1307.75 5380.96 1342.76 5368.49C1342.76 5281.26 1342.76 5194.21 1342.76 5106.98L1026.26 5039.91C1071.35 5098.37 1107.63 5170.2 1097.74 5246.81C1089.31 5309.48 1053.94 5345.95 1071.35 5377.84Z" fill="#4C3D28"/>
<path d="M1285.36 5387.91L1349.5 5369.59V5107.71L1193.73 5076.37L1028.8 5039.71C1028.8 5039.71 1081.2 5135.35 1111.26 5195.49C1157.08 5287.12 1285.36 5387.91 1285.36 5387.91Z" fill="#33271D"/>
<path d="M2937.48 4401.05C3013.35 4367.7 3075.11 4334.16 3121.47 4306.67C3146.58 4291.83 3217.14 4249.49 3280.18 4174.36C3297.77 4153.46 3311.52 4134.04 3309.87 4110.03C3307.3 4071.55 3266.43 4038.74 3227.03 4030.68C3178.83 4020.78 3138.88 4049.56 3128.07 4057.25C3091.6 4083.46 3092.52 4108.02 3054.21 4146.87C3026.91 4174.72 2998.14 4191.03 2977.61 4200.75L2937.48 4401.05Z" fill="#4C3D28"/>
<path d="M2978.01 4196.71L2941.36 4398.3C3011.66 4368.32 3035.64 4348.83 3042.15 4306.67C3048.67 4264.51 3060.48 4141.73 3060.48 4141.73L2978.01 4196.71Z" fill="#33271D"/>
<path d="M318.762 4141.73C271.101 4209.53 235.61 4270.19 210.162 4317.71C196.36 4343.4 157.894 4416.14 142.834 4513.06C138.591 4540.04 136.883 4563.77 150.718 4583.46C172.83 4615.07 224.775 4621.99 262.663 4608.5C309.026 4592.02 328.323 4546.73 333.591 4534.55C351.236 4493.25 337.743 4472.71 350.412 4419.64C359.362 4381.68 375.541 4352.83 388.078 4333.9L318.762 4141.73Z" fill="#4C3D28"/>
<path d="M389.825 4337.57L316.866 4146.1C272.229 4208.14 261.794 4237.23 278.037 4276.67C294.28 4316.11 347.71 4427.29 347.71 4427.29L389.825 4337.57Z" fill="#33271D"/>
<path d="M2967.32 4084.96C3015.89 4415.02 2808.62 4680.38 2761.89 4740.12C2405.44 5196.45 1758.71 5179.77 1587.36 5175.19C1358.28 5169.32 906.722 5157.6 590.778 4810.31C548.078 4763.22 246.978 4421.98 324.132 4000.84C358.402 3814.1 452.416 3690.58 553.393 3561.02C671.78 3409.09 918.268 3092.96 1320.16 2996.57C2095.91 2810.56 2724.68 3618.19 2794.51 3710.74C2907.76 3860.47 2951.38 3976.84 2967.32 4084.96Z" fill="url(#paint0_linear_3816_143)"/>
<path d="M2971.19 4030.3C3019.76 4360.36 2812.49 4625.72 2765.76 4685.47C2409.31 5141.79 1762.58 5125.11 1591.23 5120.53C1362.15 5114.67 910.592 5102.94 594.648 4755.66C551.948 4708.56 250.849 4367.32 328.002 3946.19C362.272 3759.44 456.286 3635.92 557.263 3506.36C675.65 3354.43 922.138 3038.31 1324.03 2941.91C2099.78 2755.9 2728.55 3563.54 2798.38 3656.08C2911.63 3805.81 2955.25 3922.18 2971.19 4030.3Z" fill="url(#paint1_linear_3816_143)"/>
<path d="M2708.53 4370.16C2653.37 4745.12 2094.97 5000.4 1645.79 5000.77C1250.13 5001.14 650.496 4804.13 575.725 4358.07C502.42 3921.36 971.937 3483.18 1421.3 3404.19C2069.86 3290.02 2776.7 3906.15 2708.53 4370.16Z" fill="#1D1509"/>
<path d="M2714.99 4314.18C2659.83 4689.13 2101.43 4944.41 1652.25 4944.78C1256.59 4945.15 656.955 4748.14 582.184 4302.08C508.879 3865.37 978.396 3427.19 1427.76 3348.2C2076.32 3234.03 2783.16 3850.16 2714.99 4314.18Z" fill="url(#paint2_radial_3816_143)"/>
<path d="M1869.71 4179.19C1903.61 4230.69 1852.48 4325.98 1804.28 4375.65C1786.32 4394.16 1737.21 4444.74 1663.9 4445.84C1589.13 4446.94 1516.96 4409.92 1483.24 4375.65C1434.16 4333.68 1384.25 4215.48 1415.95 4165.08C1430.61 4141.81 1459.75 4142.91 1647.59 4148.04C1824.63 4153.17 1852.85 4153.72 1869.71 4179.19Z" fill="#FFF7CF"/>
<path d="M1493 3099.15C1530.56 3120.22 1568.87 3110.51 1614.68 3099.15C1648.95 3090.53 1679.92 3082.84 1694.22 3057C1708.88 3030.24 1698.07 2998.35 1694.22 2986.81C1657.93 2877.22 1657.93 2756.81 1614.68 2649.97C1547.42 2483.57 1560.44 2300.31 1586.64 1934.15C1602.77 1707.82 1626.41 1703.42 1619.45 1555.16C1611.75 1392.06 1580.04 1329.02 1593.79 1162.07C1603.32 1044.6 1614.13 932.622 1694.4 871.962C1746.08 832.927 1769.54 858.217 1890.86 815.884C1992.57 780.331 2012.18 749.91 2129.46 694.198C2181.14 669.641 2258.3 637.203 2358.73 609.897C2450.72 545.939 2542.72 481.98 2634.72 418.022C2532.28 485.646 2437.9 531.278 2358.73 562.982C2289.09 590.838 2279.19 588.822 2190.31 623.825C2051.21 678.438 2014.01 707.759 1909.73 750.093C1848.89 774.833 1760.56 805.988 1647.12 829.628C1628.43 863.899 1609.55 898.169 1590.86 932.622C1582.43 897.436 1574.73 860.05 1568.13 820.283C1558.6 763.654 1552.74 710.325 1549.44 661.211L1437.1 576.91L1287.56 530.178L1083.4 520.832L931.846 417.839L683.893 394.381L534.167 473.917L683.893 450.459L772.775 427.002L899.043 455.041C934.962 478.498 970.698 501.773 1006.62 525.23C1053.35 542.457 1100.26 559.5 1147 576.727L1254.57 567.38L1399.53 623.459L1483.83 688.883C1492.63 724.07 1503.81 768.419 1516.64 819.916C1528.91 869.763 1532.58 885.157 1535.33 908.798C1538.81 939.036 1538.99 968.175 1535.33 1016.37C1529.65 1088.94 1519.75 1142.46 1516.64 1161.33C1503.26 1239.95 1511.69 1275.87 1516.64 1414.05C1516.64 1414.05 1521.22 1542.52 1516.64 1708.92C1511.32 1899.33 1497.21 1923.34 1493.18 2120.71C1491.35 2215.46 1494.83 2196.95 1493.18 2335.86C1491.53 2472.39 1490.25 2571.72 1479.07 2696.15C1473.57 2757.55 1464.04 2844.23 1446.26 2948.87L1436.92 3023.83C1441.5 3039.77 1455.61 3078.26 1493 3099.15Z" fill="url(#paint3_linear_3816_143)"/>
<path d="M2332.7 617.416C2360.19 614.301 2400.14 611.918 2447.6 617.416C2498.37 623.28 2545.47 628.595 2587.98 656.817C2667.52 709.597 2682 809.658 2686.21 839.346C2702.34 951.136 2651.76 1037.45 2634.71 1064.03C2604.11 1014.73 2574.24 975.693 2550.41 947.105C2515.59 905.321 2495.44 880.947 2461.53 853.458C2409.85 811.674 2388.41 812.59 2358.54 778.504C2328.12 743.684 2316.57 703.55 2311.81 675.51C2301.91 661.399 2292.01 647.288 2282.12 633.176" fill="url(#paint4_linear_3816_143)"/>
<path d="M1960.68 795.363C1988.17 792.247 2028.12 789.865 2075.59 795.363C2126.35 801.227 2173.45 806.542 2215.97 834.764C2295.5 887.544 2309.98 987.605 2314.2 1017.29C2330.32 1129.08 2279.74 1215.4 2262.7 1241.97C2232.09 1192.68 2202.22 1153.64 2178.4 1125.05C2143.58 1083.27 2123.42 1058.89 2089.52 1031.4C2037.84 989.621 2016.39 990.537 1986.52 956.45C1956.1 921.631 1944.56 881.496 1939.79 853.457C1929.89 839.346 1920 825.235 1910.1 811.124" fill="url(#paint5_linear_3816_143)"/>
<path d="M1530.38 937.201C1566.3 895.783 1608.27 876.174 1633.37 867.011L1675.71 838.972C1692.75 863.712 1715.11 901.281 1731.6 950.945C1751.4 1010.32 1770.09 1065.85 1750.3 1119.73C1729.77 1175.81 1686.15 1180.02 1600.57 1264.69C1560.8 1304.09 1532.76 1340.19 1516.27 1362.92C1486.95 1285.76 1475.95 1220.52 1471.37 1175.81C1464.96 1113.68 1470.09 1081.24 1471.37 1072.81C1476.32 1044.04 1486.21 988.331 1530.38 937.201Z" fill="url(#paint6_linear_3816_143)"/>
<path d="M400.579 559.864C436.499 518.447 478.466 498.838 503.573 489.675L545.906 461.636C562.95 486.376 585.308 523.945 601.801 573.609C621.593 632.986 640.286 688.514 620.494 742.394C599.969 798.472 556.352 802.687 470.769 887.354C431.001 926.755 402.962 962.858 386.468 985.582C357.146 908.429 346.15 843.188 341.569 798.472C335.155 736.346 340.286 703.909 341.569 695.478C346.334 666.89 356.23 611.177 400.579 559.864Z" fill="url(#paint7_linear_3816_143)"/>
<path d="M520.424 285.337C538.567 337.2 534.535 383.382 529.954 409.588L533.252 460.169C503.381 462.551 459.581 463.284 408.267 452.838C346.875 440.56 289.513 428.831 252.678 385.031C214.376 339.399 232.336 299.448 201.548 182.893C187.253 128.647 169.843 86.4973 158.298 60.8406C239.85 73.8522 301.975 96.9431 343.026 115.086C400.021 140.559 425.677 161.085 432.275 166.399C454.816 184.909 498.066 221.378 520.424 285.337Z" fill="url(#paint8_linear_3816_143)"/>
<path d="M1257.32 359.56C1251.09 413.989 1227.26 453.94 1211.87 475.565L1192.81 522.664C1164.95 511.851 1125.18 493.342 1083.4 461.638C1033.55 423.885 987.005 388.333 972.893 332.804C958.233 274.893 991.952 246.854 1014.86 128.65C1025.49 73.6715 1028.24 28.0391 1029.15 0C1096.78 47.2816 1142.78 94.9298 1171.73 129.383C1212.05 177.031 1226.16 206.72 1229.64 214.417C1241.92 240.806 1265.01 292.303 1257.32 359.56Z" fill="url(#paint9_linear_3816_143)"/>
<path d="M1083.22 615.763C1132.52 591.939 1179.07 590.472 1205.45 591.938L1255.48 582.958C1261.35 612.28 1267.03 655.714 1262.63 707.943C1257.32 770.253 1252.55 828.713 1213.15 870.313C1172.1 913.747 1130.5 900.369 1018.34 944.352C966.114 964.877 926.163 986.869 902.156 1001.35C905.821 918.878 921.398 854.553 934.96 811.67C953.652 752.11 971.062 724.254 975.644 717.107C991.221 692.549 1022.38 645.268 1083.22 615.763Z" fill="url(#paint10_linear_3816_143)"/>
<path d="M2332.34 520.646C2295.14 560.964 2252.44 579.106 2227.15 587.353L2183.9 614.11C2167.77 589.003 2146.51 550.518 2131.67 500.304C2113.71 440.377 2097.03 384.299 2118.47 330.97C2140.83 275.624 2184.45 272.875 2272.96 190.957C2314.01 152.839 2343.15 117.653 2360.38 95.4778C2387.14 173.547 2396.12 239.155 2399.23 284.054C2403.63 346.364 2397.58 378.618 2395.93 386.865C2390.07 415.453 2378.34 470.799 2332.34 520.646Z" fill="#E6C619"/>
<path d="M2728.37 437.629C2679.99 463.469 2633.62 466.768 2607.05 466.218L2557.57 477.214C2550.6 448.075 2543.09 404.825 2545.47 352.596C2548.22 290.103 2550.79 231.643 2588.54 188.393C2627.76 143.493 2670.09 155.039 2780.23 106.658C2831.54 84.1166 2870.58 60.4758 2894.04 45.0818C2893.67 127.55 2880.66 192.608 2868.93 235.858C2852.62 296.151 2836.31 324.74 2832.09 331.887C2817.25 357.36 2788.11 405.742 2728.37 437.629Z" fill="url(#paint11_linear_3816_143)"/>
<path d="M2293.13 3962.31C2294.41 3982.84 2285.44 4009.96 2264.73 4022.79C2213.23 4053.76 2155.14 3953.15 2047.01 3954.43C1953 3955.72 1906.63 4031.77 1858.98 4003.37C1834.43 3989.25 1822.88 3955.72 1828.01 3929.88C1839.56 3862.8 1968.39 3826.88 2065.15 3832.02C2164.3 3837.33 2289.28 3892.68 2293.13 3962.31Z" fill="#FFF7CF"/>
<path d="M1431.43 3939.41C1434.73 3959.75 1428.31 3987.6 1409.07 4002.45C1360.87 4038.19 1293.25 3943.99 1185.67 3955.72C1092.21 3966.16 1053.54 4046.43 1003.33 4022.79C977.672 4011.06 962.828 3978.81 965.393 3952.79C970.341 3884.98 1095.14 3836.41 1191.72 3832.2C1290.87 3827.62 1420.8 3870.5 1431.43 3939.41Z" fill="#FFF7CF"/>
<defs>
<linearGradient id="paint0_linear_3816_143" x1="1643.09" y1="5176.53" x2="1643.09" y2="2968.85" gradientUnits="userSpaceOnUse">
<stop stop-color="#2D863B"/>
<stop offset="0.5" stop-color="#4A3618"/>
<stop offset="1" stop-color="#4F4029"/>
</linearGradient>
<linearGradient id="paint1_linear_3816_143" x1="1646.96" y1="5121.87" x2="1646.96" y2="2914.19" gradientUnits="userSpaceOnUse">
<stop stop-color="#2D813A"/>
<stop offset="0.5" stop-color="#2E883C"/>
<stop offset="1" stop-color="#469352"/>
</linearGradient>
<radialGradient id="paint2_radial_3816_143" cx="0" cy="0" r="1" gradientUnits="userSpaceOnUse" gradientTransform="translate(1649.36 3866.83) rotate(52.2942) scale(1633.04 2175.11)">
<stop stop-color="#4E3F29"/>
<stop offset="1" stop-color="#211715"/>
</radialGradient>
<linearGradient id="paint3_linear_3816_143" x1="1584.44" y1="394.381" x2="1584.44" y2="3111.57" gradientUnits="userSpaceOnUse">
<stop stop-color="#81725D"/>
<stop offset="1" stop-color="#4E3F29"/>
</linearGradient>
<linearGradient id="paint4_linear_3816_143" x1="2485.73" y1="614.126" x2="2485.73" y2="1064.03" gradientUnits="userSpaceOnUse">
<stop stop-color="white"/>
<stop offset="1" stop-color="#7EC438"/>
</linearGradient>
<linearGradient id="paint5_linear_3816_143" x1="2113.71" y1="792.073" x2="2113.71" y2="1241.97" gradientUnits="userSpaceOnUse">
<stop stop-color="#6A9E37"/>
<stop offset="1" stop-color="#9BCD69"/>
</linearGradient>
<linearGradient id="paint6_linear_3816_143" x1="1613.47" y1="838.972" x2="1613.47" y2="1362.92" gradientUnits="userSpaceOnUse">
<stop stop-color="#138F34"/>
<stop offset="1" stop-color="#11CF44"/>
</linearGradient>
<linearGradient id="paint7_linear_3816_143" x1="483.668" y1="461.636" x2="483.668" y2="985.582" gradientUnits="userSpaceOnUse">
<stop stop-color="#6A9E37"/>
<stop offset="1" stop-color="#9BCD69"/>
</linearGradient>
<linearGradient id="paint8_linear_3816_143" x1="346.069" y1="60.8406" x2="346.069" y2="461.656" gradientUnits="userSpaceOnUse">
<stop stop-color="#6A9E37"/>
<stop offset="1" stop-color="#9BCD69"/>
</linearGradient>
<linearGradient id="paint9_linear_3816_143" x1="1114.09" y1="0" x2="1114.09" y2="522.664" gradientUnits="userSpaceOnUse">
<stop stop-color="#6A9E37"/>
<stop offset="1" stop-color="#9BCD69"/>
</linearGradient>
<linearGradient id="paint10_linear_3816_143" x1="1083.18" y1="582.958" x2="1083.18" y2="1001.35" gradientUnits="userSpaceOnUse">
<stop stop-color="#138F34"/>
<stop offset="1" stop-color="#11CF44"/>
</linearGradient>
<linearGradient id="paint11_linear_3816_143" x1="2719.53" y1="477.214" x2="2719.53" y2="45.0818" gradientUnits="userSpaceOnUse">
<stop stop-color="#D52B91"/>
<stop offset="1" stop-color="#B5006D"/>
</linearGradient>
</defs>
</svg>
