<svg width="274" height="82" viewBox="0 0 274 82" fill="none" xmlns="http://www.w3.org/2000/svg">
<path d="M167.179 58.8912H158.177V36.9925C158.177 32.7941 156.348 30.6949 152.691 30.6949C149.409 30.6949 146.97 32.2932 145.376 35.4897V58.8912H136.374V33.0565C136.374 28.5242 135.225 25.9717 132.928 25.3992V24.3258H144.673L144.814 28.3333C147.299 25.1368 150.769 23.5386 155.223 23.5386C158.692 23.5386 161.459 24.5404 163.522 26.5442C165.96 28.882 167.179 32.3648 167.179 36.9925V58.8912Z" fill="#06A5B8"/>
<path d="M189.046 57.388C186.467 59.0102 183.537 59.8212 180.254 59.8212C172.565 59.8212 168.72 56.0046 168.72 48.371V31.4105H163.727V29.0489L177.582 15.5234V24.3257H187.921V31.4105H177.582V47.5125C177.582 50.8998 179.223 52.5934 182.505 52.5934C184.568 52.5934 186.748 51.8539 189.046 50.3749V57.388Z" fill="url(#paint0_linear_4133_2380)"/>
<path d="M209.523 59.1652H200.521V33.3309C200.521 28.7985 199.372 26.2461 197.074 25.6735V24.6001H209.523V59.1652Z" fill="#E6C619"/>
<path d="M241.952 17.4555C240.733 16.4536 239.256 15.9527 237.521 15.9527C234.098 15.9527 232.387 18.0996 232.387 22.3934V24.254H239.912V31.4104H232.387V58.8907H223.455V31.4104H218.812V24.254H223.455V24.0393C223.455 20.7474 223.759 18.1711 224.369 16.3105C224.978 14.4498 226.08 12.8039 227.674 11.3726C229.831 9.41651 232.762 8.43848 236.466 8.43848C238.669 8.43848 240.498 8.91555 241.952 9.86974V17.4555Z" fill="#06A5B8"/>
<path d="M273.53 24.3257L251.376 74.9212L242.092 74.9926L250.813 55.0266L239.982 33.0565C238.482 30.0985 237.568 28.381 237.239 27.9039C236.348 26.5203 235.293 25.6854 234.074 25.3991V24.3257H246.664L255.596 44.1489L264.317 24.3257H273.53Z" fill="#06A5B8"/>
<path d="M127.633 37.2786C127.352 32.5554 125.101 30.1938 120.881 30.1938C116.802 30.1938 114.435 32.5554 113.778 37.2786H127.633ZM136.425 40.9285C136.425 41.501 136.378 42.3595 136.284 43.5045H113.497C113.966 49.5158 117.412 52.5219 123.835 52.5219C127.493 52.5219 130.798 51.4483 133.752 49.3012L135.229 55.8136C131.384 58.4376 126.977 59.7496 122.007 59.7496C116.568 59.7496 112.231 58.0559 108.996 54.6686C105.76 51.2813 104.143 46.916 104.143 41.5724C104.143 36.3721 105.737 32.0545 108.925 28.6194C112.113 25.1366 116.099 23.3953 120.881 23.3953C125.477 23.3953 129.134 24.8027 131.853 27.6175C134.901 30.7186 136.425 35.1556 136.425 40.9285Z" fill="#06A5B8"/>
<path d="M107.508 57.3878C105.023 58.9624 101.811 59.7496 97.8723 59.7496C92.5271 59.7496 88.0729 58.0559 84.5094 54.6686C80.9927 51.2337 79.2344 46.868 79.2344 41.5724C79.2344 36.3244 80.9927 31.9829 84.5094 28.5478C88.0729 25.1128 92.5271 23.3953 97.8723 23.3953C101.811 23.3953 105.023 24.1825 107.508 25.7569V33.9151C105.069 31.9113 102.139 30.9094 98.7162 30.9094C95.8091 30.9094 93.4181 31.8875 91.5425 33.8436C89.6668 35.7519 88.7293 38.3283 88.7293 41.5724C88.7293 44.8645 89.6668 47.4885 91.5425 49.4444C93.4181 51.3527 95.8091 52.3068 98.7162 52.3068C102.139 52.3068 105.069 51.3051 107.508 49.3012V57.3878Z" fill="#04A4B9"/>
<path fill-rule="evenodd" clip-rule="evenodd" d="M204.034 1.49097C200.19 1.49097 197.074 4.69266 197.074 8.64211C197.074 10.7596 197.971 12.6627 199.393 13.9712C199.867 14.4073 200.218 14.7305 200.467 14.9649C200.592 15.082 200.687 15.1735 200.757 15.2439C200.792 15.2789 200.819 15.3066 200.839 15.3281C200.849 15.3387 200.856 15.347 200.861 15.3533C200.866 15.3593 200.869 15.3624 200.869 15.3624C201.088 15.6408 201.136 15.7126 201.165 15.7776C201.192 15.8427 201.213 15.9269 201.268 16.2805C201.291 16.4202 201.293 16.6593 201.293 17.3102V17.3382C201.293 17.7194 201.293 18.0482 201.316 18.318C201.341 18.6033 201.397 18.8858 201.547 19.1522C201.713 19.4487 201.953 19.6949 202.242 19.8661C202.501 20.0198 202.775 20.077 203.053 20.103C203.316 20.1273 203.636 20.1273 204.007 20.1273H204.061C204.433 20.1273 204.752 20.1273 205.015 20.103C205.293 20.077 205.568 20.0198 205.827 19.8661C206.116 19.6949 206.355 19.4487 206.522 19.1522C206.672 18.8858 206.727 18.6033 206.752 18.318C206.776 18.0482 206.776 17.7194 206.776 17.3382V17.3102C206.776 16.6593 206.779 16.4202 206.8 16.2805C206.856 15.9269 206.876 15.8427 206.904 15.7776C206.933 15.7126 206.98 15.6408 207.199 15.3624C207.199 15.3624 207.201 15.3613 207.202 15.3589C207.202 15.3589 207.205 15.3556 207.207 15.3533C207.212 15.347 207.22 15.3387 207.23 15.3281C207.25 15.3066 207.277 15.2789 207.311 15.2439C207.382 15.1735 207.477 15.082 207.601 14.9649C207.85 14.7305 208.201 14.4073 208.675 13.9712C210.097 12.6627 210.994 10.7596 210.994 8.64211C210.994 4.69266 207.878 1.49097 204.034 1.49097ZM205.492 18.2006C205.498 18.1296 205.502 18.0507 205.505 17.9603H202.563C202.566 18.0507 202.571 18.1296 202.576 18.2006C202.594 18.3959 202.623 18.4667 202.643 18.5021C202.698 18.601 202.778 18.683 202.875 18.7401C202.909 18.7605 202.978 18.7903 203.168 18.808C203.366 18.8265 203.628 18.8272 204.034 18.8272C204.44 18.8272 204.702 18.8265 204.901 18.808C205.091 18.7903 205.159 18.7605 205.194 18.7401C205.291 18.683 205.371 18.601 205.426 18.5021C205.446 18.4667 205.475 18.3959 205.492 18.2006Z" fill="url(#paint1_linear_4133_2380)"/>
<mask id="mask0_4133_2380" style="mask-type:luminance" maskUnits="userSpaceOnUse" x="43" y="15" width="42" height="44">
<path d="M84.9835 15.6545H43.957V58.8908H84.9835V15.6545Z" fill="white"/>
</mask>
<g mask="url(#mask0_4133_2380)">
<path d="M63.9205 28.1356V57.4982C62.0303 58.3912 59.9374 58.8907 57.731 58.8907C56.8585 58.8907 56.0179 58.7573 55.2085 58.5041C51.4026 57.3248 48.2984 53.5872 46.3258 49.1429C45.8896 48.1702 45.5101 47.1643 45.1942 46.1384C44.2838 43.2465 43.8475 40.2351 43.9805 37.5567C44.4293 28.3621 47.7359 23.3185 57.0801 25.5037C59.2992 26.0234 61.1263 26.8563 62.7699 27.6159C63.162 27.7957 63.5477 27.969 63.9205 28.1356Z" fill="#90D947"/>
<path d="M63.9199 28.1389V57.4972C65.8101 58.3932 67.9048 58.8904 70.1102 58.8904C78.4917 58.8904 84.2943 46.4227 83.861 37.558C83.4122 28.3654 80.1034 23.3162 70.761 25.5042C68.0166 26.1469 65.8702 27.2713 63.9199 28.1389Z" fill="url(#paint2_linear_4133_2380)"/>
<path d="M57.7155 17.1804L58.0656 15.794C58.0842 15.7199 58.1684 15.6734 58.2917 15.6591C58.415 15.6462 58.5791 15.6586 58.745 15.7234C58.745 15.7234 58.794 15.7434 58.8854 15.781C58.931 15.8 58.9871 15.8235 59.0536 15.8509C59.1185 15.8816 59.1932 15.9167 59.2767 15.9561C59.6108 16.1122 60.0794 16.3609 60.5992 16.7266C61.1204 17.0888 61.6885 17.574 62.2157 18.1715C62.7481 18.7635 63.2285 19.4745 63.6161 20.2321C63.996 20.9948 64.2833 21.8035 64.4485 22.5847C64.6208 23.3643 64.6828 24.1096 64.6769 24.7442C64.6746 25.3793 64.6112 25.9038 64.5499 26.2657C64.535 26.3562 64.522 26.437 64.5102 26.5073C64.4957 26.5769 64.4834 26.6363 64.4734 26.6843C64.453 26.7802 64.4419 26.8313 64.4419 26.8313C64.4144 27.0063 64.345 27.1544 64.2744 27.2545C64.2028 27.3545 64.1233 27.4048 64.0531 27.385L63.6562 27.2737C63.5861 27.2539 63.5367 27.1719 63.5137 27.0581C63.4892 26.9437 63.4973 26.7987 63.5215 26.6423C63.5215 26.6423 63.5278 26.5958 63.5397 26.5088C63.5456 26.4653 63.5527 26.4116 63.5612 26.3485C63.5664 26.2851 63.5727 26.2123 63.5801 26.1306C63.6102 25.805 63.6314 25.3367 63.5913 24.7805C63.5549 24.2247 63.4517 23.5817 63.2527 22.9237C63.0603 22.2637 62.7618 21.5951 62.3939 20.979C62.0178 20.3675 61.5726 19.8086 61.0959 19.3577C60.624 18.9012 60.131 18.5453 59.687 18.288C59.2444 18.0276 58.8538 17.86 58.5765 17.758C58.5074 17.7319 58.4454 17.7087 58.392 17.6885C58.3374 17.6712 58.291 17.6562 58.2531 17.6443C58.1781 17.6205 58.138 17.6078 58.138 17.6078C58.0055 17.5551 57.8896 17.4933 57.8131 17.4156C57.7363 17.3393 57.6969 17.2545 57.7155 17.1804Z" fill="#C8B031"/>
<path d="M77.0136 16.5224C77.0069 16.9022 76.969 17.2686 76.9059 17.6084C75.7683 24.1844 65.9748 24.2912 65.9748 24.2912C65.9685 24.2846 65.9685 24.2645 65.9812 24.2312C66.0762 23.5183 67.8654 16.9421 73.5492 16.2559C74.1937 16.1759 74.8891 16.1759 75.6358 16.2693C76.0779 16.3159 76.5331 16.4024 77.0136 16.5224Z" fill="#90D947"/>
</g>
<path d="M40.229 33.9152C40.229 29.2397 38.9161 25.3275 36.2903 22.1787C33.1489 18.362 28.507 16.4537 22.3647 16.4537H16.6678V51.162H22.3647C28.507 51.162 33.1489 49.3013 36.2903 45.5799C38.9161 42.479 40.229 38.5907 40.229 33.9152ZM51.1303 33.9152C51.1303 40.5469 48.9498 46.2242 44.5896 50.9473C39.6661 56.243 33.0316 58.8908 24.6856 58.8908H6.75107V20.3897C6.75107 17.6225 6.58697 15.6426 6.25876 14.4499C5.74299 12.1599 4.59423 10.7047 2.8125 10.0845V8.86792H24.6856C33.0316 8.86792 39.6661 11.5396 44.5896 16.8831C48.9498 21.6063 51.1303 27.2836 51.1303 33.9152Z" fill="#90D947"/>
<defs>
<linearGradient id="paint0_linear_4133_2380" x1="163.375" y1="41.0001" x2="196.455" y2="30.163" gradientUnits="userSpaceOnUse">
<stop stop-color="#06A5B8"/>
<stop offset="1" stop-color="#E6C619"/>
</linearGradient>
<linearGradient id="paint1_linear_4133_2380" x1="203.744" y1="13.7211" x2="204.037" y2="1.49103" gradientUnits="userSpaceOnUse">
<stop stop-color="#E6C619"/>
</linearGradient>
<linearGradient id="paint2_linear_4133_2380" x1="63.9199" y1="41.9436" x2="83.884" y2="41.9436" gradientUnits="userSpaceOnUse">
<stop stop-color="#90D947"/>
<stop offset="1" stop-color="#04A4B9"/>
</linearGradient>
</defs>
</svg>
